<svg width="203" height="203" viewBox="0 0 203 203" fill="none" xmlns="http://www.w3.org/2000/svg">
<path d="M186.083 118.417H177.625C177.625 85.6829 151.15 59.2083 118.417 59.2083H109.958V48.4662C112.531 46.9811 114.667 44.8449 116.151 42.2724C117.636 39.7 118.417 36.7819 118.417 33.8116C118.416 30.8414 117.633 27.9237 116.147 25.352C114.661 22.7803 112.524 20.6452 109.951 19.1614C107.378 17.6776 104.459 16.8974 101.489 16.8993C98.519 16.9012 95.6016 17.6851 93.0304 19.1722C90.4593 20.6593 88.325 22.7972 86.8422 25.3708C85.3594 27.9444 84.5803 30.8631 84.5834 33.8333C84.5834 40.0925 87.9667 45.5904 93.0417 48.4662V59.2083H84.5834C51.8496 59.2083 25.375 85.6829 25.375 118.417H16.9167C12.2646 118.417 8.45837 122.223 8.45837 126.875V152.25C8.45837 156.902 12.2646 160.708 16.9167 160.708H25.375V169.167C25.375 173.653 27.1573 177.956 30.3298 181.129C33.5023 184.301 37.8051 186.083 42.2917 186.083H160.708C170.097 186.083 177.625 178.555 177.625 169.167V160.708H186.083C190.735 160.708 194.542 156.902 194.542 152.25V126.875C194.542 122.223 190.735 118.417 186.083 118.417ZM83.3992 141.085L73.4184 151.066L63.4375 141.085L53.4567 151.066L43.4759 141.085L53.4567 131.104L43.4759 121.123L53.4567 111.143L63.4375 121.123L73.4184 111.143L83.3992 121.123L73.4184 131.104L83.3992 141.085ZM159.524 141.085L149.543 151.066L139.563 141.085L129.582 151.066L119.601 141.085L129.582 131.104L119.601 121.123L129.582 111.143L139.563 121.123L149.543 111.143L159.524 121.123L149.543 131.104L159.524 141.085Z" fill="#B3DAF2"/>
</svg>
