<svg width="51" height="22" viewBox="0 0 51 22" fill="none" xmlns="http://www.w3.org/2000/svg">
<path d="M9.3189 2.83061C8.72129 3.57594 7.76512 4.16216 6.80895 4.07842C6.68943 3.07347 7.15954 2.00152 7.70934 1.34831C8.30695 0.58622 9.35077 0.0418729 10.2034 0C10.299 1.03845 9.90854 2.06852 9.3189 2.83061ZM10.1874 4.27103C8.80097 4.18729 7.61372 5.10011 6.96034 5.10011C6.29102 5.10011 5.28704 4.3129 4.18744 4.33803C2.76115 4.36315 1.43845 5.20898 0.713354 6.55729C-0.784647 9.26228 0.322918 13.2569 1.77311 15.4595C2.48227 16.5482 3.32689 17.7457 4.44242 17.7038C5.50218 17.662 5.91652 16.9836 7.19142 16.9836C8.47428 16.9836 8.84878 17.7038 9.96431 17.6871C11.1197 17.662 11.8448 16.5984 12.5539 15.5097C13.3587 14.2703 13.6934 13.0727 13.7093 13.0057C13.6854 12.9806 11.4782 12.0929 11.4543 9.41302C11.4304 7.16863 13.1994 6.10506 13.279 6.03807C12.283 4.4804 10.7292 4.3129 10.1874 4.27103ZM18.1874 1.23944V17.5615H20.6017V11.984H23.9404C26.9921 11.984 29.1276 9.7815 29.1276 6.59916C29.1276 3.41683 27.024 1.23944 24.02 1.23944H18.1874ZM20.6017 3.37495H23.3826C25.4782 3.37495 26.6734 4.54739 26.6734 6.60754C26.6734 8.66768 25.4782 9.85687 23.3746 9.85687H20.6017V3.37495ZM33.526 17.6871C35.0399 17.6871 36.4423 16.8831 37.0797 15.6018H37.1275V17.5615H39.3586V9.43814C39.3586 7.08489 37.5658 5.56072 34.8088 5.56072C32.2511 5.56072 30.3547 7.10164 30.283 9.21203H32.4582C32.6415 8.20708 33.526 7.54549 34.7371 7.54549C36.2112 7.54549 37.0399 8.2657 37.0399 9.59726V10.5017L34.028 10.6943C31.2312 10.8702 29.7172 12.0761 29.7172 14.1698C29.7252 16.2802 31.2869 17.6871 33.526 17.6871ZM34.1794 15.7526C32.8965 15.7526 32.0758 15.0994 32.0758 14.1112C32.0758 13.0811 32.8646 12.4865 34.3706 12.3944L37.0479 12.2185V13.1397C37.0479 14.6639 35.8128 15.7526 34.1794 15.7526ZM42.3466 22C44.6972 22 45.8048 21.0537 46.7689 18.1979L51 5.71983H48.5458L45.7092 15.359H45.6614L42.8247 5.71983H40.3068L44.3865 17.6033L44.1634 18.3236C43.7968 19.5462 43.1992 20.0236 42.1315 20.0236C41.9403 20.0236 41.5737 19.9985 41.4223 19.9817V21.9414C41.5658 21.9749 42.1634 22 42.3466 22Z" fill="#F2F2F2"/>
</svg>
