<svg width="44" height="44" viewBox="0 0 44 44" fill="none" xmlns="http://www.w3.org/2000/svg">
<path d="M19.5556 34.2222C19.5556 35.5667 20.6556 36.6667 22 36.6667C23.3444 36.6667 24.4444 35.5667 24.4444 34.2222C24.4444 32.8778 23.3444 31.7778 22 31.7778C20.6556 31.7778 19.5556 32.8778 19.5556 34.2222ZM19.5556 0V9.77778H24.4444V5.08444C32.7311 6.28222 39.1111 13.3711 39.1111 22C39.1111 31.46 31.46 39.1111 22 39.1111C12.54 39.1111 4.88889 31.46 4.88889 22C4.88889 17.8933 6.33111 14.1289 8.75111 11.1956L22 24.4444L25.4467 20.9978L8.82444 4.37556V4.42444C3.47111 8.43333 0 14.7889 0 22C0 34.1489 9.82667 44 22 44C27.8348 44 33.4305 41.6821 37.5563 37.5563C41.6821 33.4305 44 27.8348 44 22C44 16.1652 41.6821 10.5695 37.5563 6.44365C33.4305 2.31785 27.8348 8.69447e-08 22 0H19.5556ZM36.6667 22C36.6667 20.6556 35.5667 19.5556 34.2222 19.5556C32.8778 19.5556 31.7778 20.6556 31.7778 22C31.7778 23.3444 32.8778 24.4444 34.2222 24.4444C35.5667 24.4444 36.6667 23.3444 36.6667 22ZM7.33333 22C7.33333 23.3444 8.43333 24.4444 9.77778 24.4444C11.1222 24.4444 12.2222 23.3444 12.2222 22C12.2222 20.6556 11.1222 19.5556 9.77778 19.5556C8.43333 19.5556 7.33333 20.6556 7.33333 22Z" fill="#F2F2F2"/>
</svg>
