<svg width="56" height="56" viewBox="0 0 56 56" fill="none" xmlns="http://www.w3.org/2000/svg">
<path d="M44.3333 7H11.6667C9.093 7 7 9.093 7 11.6667V44.3333C7 46.907 9.093 49 11.6667 49H44.3333C46.907 49 49 46.907 49 44.3333V11.6667C49 9.093 46.907 7 44.3333 7ZM11.6667 44.3333V11.6667H44.3333L44.338 44.3333H11.6667Z" fill="#F2F2F2"/>
<path d="M18.6667 22.1667C20.5997 22.1667 22.1667 20.5997 22.1667 18.6667C22.1667 16.7337 20.5997 15.1667 18.6667 15.1667C16.7337 15.1667 15.1667 16.7337 15.1667 18.6667C15.1667 20.5997 16.7337 22.1667 18.6667 22.1667Z" fill="#F2F2F2"/>
<path d="M28 31.5C29.933 31.5 31.5 29.933 31.5 28C31.5 26.067 29.933 24.5 28 24.5C26.067 24.5 24.5 26.067 24.5 28C24.5 29.933 26.067 31.5 28 31.5Z" fill="#F2F2F2"/>
<path d="M37.3333 40.8333C39.2663 40.8333 40.8333 39.2663 40.8333 37.3333C40.8333 35.4003 39.2663 33.8333 37.3333 33.8333C35.4003 33.8333 33.8333 35.4003 33.8333 37.3333C33.8333 39.2663 35.4003 40.8333 37.3333 40.8333Z" fill="#F2F2F2"/>
<path d="M18.6667 40.8333C20.5997 40.8333 22.1667 39.2663 22.1667 37.3333C22.1667 35.4003 20.5997 33.8333 18.6667 33.8333C16.7337 33.8333 15.1667 35.4003 15.1667 37.3333C15.1667 39.2663 16.7337 40.8333 18.6667 40.8333Z" fill="#F2F2F2"/>
<path d="M37.3333 22.1667C39.2663 22.1667 40.8333 20.5997 40.8333 18.6667C40.8333 16.7337 39.2663 15.1667 37.3333 15.1667C35.4003 15.1667 33.8333 16.7337 33.8333 18.6667C33.8333 20.5997 35.4003 22.1667 37.3333 22.1667Z" fill="#F2F2F2"/>
</svg>
