<svg width="45" height="36" viewBox="0 0 45 36" fill="none" xmlns="http://www.w3.org/2000/svg">
<path d="M7.43343 15.1172V18.0176H11.4483C11.3673 18.4799 11.1939 18.9212 10.9385 19.3151C10.6832 19.7089 10.351 20.0472 9.96186 20.3097C9.29108 20.7703 8.43468 21.0326 7.43061 21.0326C5.48999 21.0326 3.8496 19.7029 3.26108 17.9233C2.95313 16.9871 2.95313 15.9768 3.26108 15.0405C3.8496 13.2504 5.48999 11.9208 7.43061 11.9208C7.95664 11.911 8.47936 12.0059 8.96836 12.2C9.45735 12.3941 9.90287 12.6835 10.279 13.0514L12.408 10.8984C11.0671 9.6244 9.28297 8.92234 7.43343 8.94091C6.04983 8.94622 4.69527 9.3382 3.52266 10.0726C2.35005 10.807 1.40608 11.8546 0.797332 13.0971C0.272968 14.1471 0 15.3047 0 16.4784C0 17.6521 0.272968 18.8097 0.797332 19.8597V19.8703C1.40625 21.1121 2.35046 22.1587 3.5232 22.8918C4.69594 23.6249 6.0504 24.0153 7.43343 24.0187C9.43522 24.0187 11.1283 23.3486 12.3553 22.1969C13.7615 20.8884 14.5638 18.952 14.5638 16.6486C14.5646 16.1356 14.5235 15.6234 14.4408 15.1172H7.43343ZM34.8138 14.8359C34.1015 14.1764 33.1312 13.8417 31.9036 13.8417C30.3244 13.8417 29.1375 14.4281 28.3528 15.5897L29.8188 16.522C30.3555 15.7251 31.0882 15.3267 32.0168 15.3267C32.608 15.3281 33.1778 15.5483 33.6164 15.9447C33.8301 16.1303 34.0016 16.3596 34.1191 16.6171C34.2366 16.8747 34.2975 17.1544 34.2977 17.4375V17.8249C33.6579 17.4684 32.8528 17.28 31.8621 17.28C30.7062 17.28 29.7773 17.5528 29.0855 18.1076C28.3936 18.6623 28.0434 19.395 28.0434 20.3266C28.0326 20.743 28.115 21.1565 28.2846 21.5369C28.4542 21.9173 28.7067 22.255 29.0236 22.5253C29.674 23.1117 30.5001 23.4049 31.4698 23.4049C32.6151 23.4049 33.5236 22.8916 34.2119 21.8658H34.2823V23.1117H35.872V17.5781C35.8769 16.4144 35.5261 15.4926 34.8138 14.8359ZM33.4617 21.1148C33.2179 21.3629 32.9271 21.5601 32.6064 21.6948C32.2857 21.8295 31.9414 21.8991 31.5935 21.8995C31.1259 21.9073 30.6701 21.7519 30.3047 21.4601C30.1341 21.3322 29.9959 21.1663 29.901 20.9754C29.8061 20.7846 29.7573 20.5742 29.7583 20.3611C29.7583 19.8689 29.9848 19.4604 30.4291 19.1362C30.8735 18.8121 31.4508 18.644 32.1215 18.644C33.0469 18.6328 33.7711 18.8437 34.2872 19.2614C34.2872 19.9736 34.0087 20.591 33.4617 21.1148ZM26.8769 11.1304C26.5038 10.7574 26.0592 10.4636 25.5697 10.2667C25.0803 10.0698 24.5561 9.97371 24.0286 9.98435H19.6221V23.1145H21.2836V17.7961H24.0258C25.1508 17.7961 26.1 17.4192 26.8741 16.676C26.936 16.6134 26.9979 16.5501 27.0605 16.4876C27.738 15.7481 28.0983 14.7724 28.064 13.7701C28.0297 12.7678 27.6035 11.819 26.8769 11.1276V11.1304ZM25.7112 15.506C25.5017 15.7296 25.247 15.9059 24.964 16.0233C24.681 16.1406 24.3763 16.1963 24.0701 16.1866H21.2836V11.6015H24.0701C24.6647 11.5994 25.236 11.8327 25.6591 12.2505C26.0896 12.6792 26.3358 13.2589 26.3456 13.8663C26.3553 14.4737 26.1277 15.061 25.7112 15.5032V15.506ZM43.1937 14.1328L40.6244 20.5804H40.5928L37.9617 14.1328H36.1554L39.7969 22.5386L37.7332 27.0611H39.4453L45 14.1328H43.1937Z" fill="#F2F2F2"/>
</svg>
