<svg width="169" height="169" viewBox="0 0 169 169" fill="none" xmlns="http://www.w3.org/2000/svg">
<path d="M84.4445 0C67.743 0 51.4165 4.95258 37.5297 14.2315C23.6428 23.5103 12.8194 36.6987 6.42799 52.129C0.0365882 67.5592 -1.63569 84.5381 1.62261 100.919C4.88092 117.299 12.9235 132.346 24.7332 144.156C36.543 155.965 51.5896 164.008 67.9702 167.266C84.3508 170.525 101.33 168.852 116.76 162.461C132.19 156.07 145.379 145.246 154.657 131.359C163.936 117.472 168.889 101.146 168.889 84.4444C168.889 62.0484 159.992 40.5696 144.156 24.7332C128.319 8.8968 106.841 0 84.4445 0ZM131.944 64.8111C131.944 66.69 131.387 68.5268 130.343 70.089C129.3 71.6513 127.816 72.8689 126.08 73.588C124.344 74.307 122.434 74.4951 120.591 74.1286C118.748 73.762 117.056 72.8572 115.727 71.5286C114.398 70.2 113.494 68.5073 113.127 66.6645C112.76 64.8216 112.949 62.9115 113.668 61.1756C114.387 59.4397 115.604 57.956 117.167 56.9121C118.729 55.8683 120.566 55.3111 122.444 55.3111C124.964 55.3111 127.38 56.312 129.162 58.0936C130.944 59.8752 131.944 62.2916 131.944 64.8111ZM49.875 74.3111C47.9961 74.3111 46.1594 73.7539 44.5971 72.7101C43.0349 71.6662 41.8172 70.1825 41.0982 68.4466C40.3792 66.7107 40.191 64.8006 40.5576 62.9578C40.9241 61.1149 41.8289 59.4222 43.1575 58.0936C44.4861 56.765 46.1789 55.8602 48.0217 55.4936C49.8645 55.1271 51.7746 55.3152 53.5105 56.0343C55.2464 56.7533 56.7301 57.9709 57.774 59.5332C58.8179 61.0955 59.375 62.9322 59.375 64.8111C59.3754 66.0766 59.1228 67.3295 58.6322 68.496C58.1417 69.6626 57.423 70.7194 56.5183 71.6044C55.6137 72.4893 54.5414 73.1847 53.3643 73.6495C52.1872 74.1143 50.9291 74.3392 49.6639 74.3111H49.875ZM123.764 114.053C124.604 115.173 124.964 116.58 124.766 117.966C124.568 119.352 123.828 120.602 122.708 121.442C121.589 122.282 120.181 122.642 118.795 122.444C117.41 122.246 116.159 121.506 115.319 120.386C111.837 115.725 107.302 111.952 102.086 109.376C96.869 106.799 91.1174 105.49 85.2993 105.557C79.4812 105.624 73.7611 107.064 68.605 109.76C63.4489 112.456 59.0024 116.332 55.6278 121.072C54.816 122.213 53.5842 122.985 52.2034 123.217C50.8227 123.45 49.4061 123.124 48.2653 122.312C47.1245 121.501 46.353 120.269 46.1204 118.888C45.8878 117.507 46.2132 116.091 47.025 114.95C51.3628 108.856 57.0783 103.873 63.7062 100.407C70.3342 96.9398 77.6871 95.0872 85.1665 94.9998C92.6458 94.9123 100.04 96.5924 106.747 99.9033C113.454 103.214 119.285 108.062 123.764 114.053Z" fill="#BDE3FF"/>
</svg>
