<svg width="34" height="41" viewBox="0 0 34 41" fill="none" xmlns="http://www.w3.org/2000/svg">
<path d="M0 38.2287C0 39.2117 0.695454 40.0491 1.54545 40.0491H21.6364C22.5018 40.0491 23.1818 39.2117 23.1818 38.2287V36.4083H0V38.2287ZM11.5909 14.5633C5.79545 14.5633 0 18.2041 0 25.4858H23.1818C23.1818 18.2041 17.3864 14.5633 11.5909 14.5633ZM4.04909 21.845C5.76454 19.0233 9.41182 18.2041 11.5909 18.2041C13.77 18.2041 17.4173 19.0233 19.1327 21.845H4.04909ZM0 29.1266H23.1818V32.7674H0V29.1266ZM26.2727 7.28165V0H23.1818V7.28165H15.4545L15.81 10.9225H30.5845L28.4209 36.4083H26.2727V40.0491H28.9309C30.2291 40.0491 31.2955 38.8658 31.45 37.3731L34 7.28165H26.2727Z" fill="#343538"/>
</svg>
