<svg width="55" height="55" viewBox="0 0 55 55" fill="none" xmlns="http://www.w3.org/2000/svg">
<path d="M32.353 34.6446C33.0023 34.6446 33.566 34.4063 34.0442 33.9296C34.5209 33.4514 34.7592 32.8877 34.7592 32.2384C34.7592 31.5891 34.5209 31.0253 34.0442 30.5471C33.566 30.0705 33.0023 29.8321 32.353 29.8321C31.7037 29.8321 31.1407 30.0705 30.664 30.5471C30.1858 31.0253 29.9467 31.5891 29.9467 32.2384C29.9467 32.8877 30.1858 33.4514 30.664 33.9296C31.1407 34.4063 31.7037 34.6446 32.353 34.6446ZM30.6342 27.3113H34.0717C34.0717 26.2037 34.1863 25.3916 34.4155 24.8753C34.6446 24.3604 35.1794 23.6828 36.0196 22.8426C37.1655 21.6967 37.9294 20.7701 38.3113 20.0628C38.6932 19.3569 38.8842 18.5266 38.8842 17.5717C38.8842 15.853 38.2823 14.4497 37.0784 13.3619C35.876 12.2726 34.3009 11.728 32.353 11.728C30.787 11.728 29.4219 12.1672 28.2578 13.0457C27.0921 13.9241 26.2801 15.0891 25.8217 16.5405L28.9155 17.8009C29.2592 16.846 29.7275 16.1295 30.3203 15.6513C30.9115 15.1746 31.5891 14.9363 32.353 14.9363C33.2696 14.9363 34.0144 15.1937 34.5873 15.7086C35.1603 16.225 35.4467 16.9224 35.4467 17.8009C35.4467 18.3356 35.2939 18.8413 34.9884 19.318C34.6828 19.7962 34.1481 20.3981 33.3842 21.1238C32.1238 22.2314 31.3507 23.1 31.0651 23.7294C30.7778 24.3604 30.6342 25.5544 30.6342 27.3113ZM18.603 41.5196C17.3426 41.5196 16.2639 41.0712 15.3671 40.1744C14.4688 39.2761 14.0196 38.1967 14.0196 36.9363V9.4363C14.0196 8.17588 14.4688 7.09651 15.3671 6.19817C16.2639 5.30137 17.3426 4.85297 18.603 4.85297H46.103C47.3634 4.85297 48.4428 5.30137 49.3411 6.19817C50.2379 7.09651 50.6863 8.17588 50.6863 9.4363V36.9363C50.6863 38.1967 50.2379 39.2761 49.3411 40.1744C48.4428 41.0712 47.3634 41.5196 46.103 41.5196H18.603ZM18.603 36.9363H46.103V9.4363H18.603V36.9363ZM9.4363 50.6863C8.17588 50.6863 7.09727 50.2379 6.20047 49.3411C5.30213 48.4428 4.85297 47.3634 4.85297 46.103V14.0196H9.4363V46.103H41.5196V50.6863H9.4363ZM18.603 9.4363V36.9363V9.4363Z" fill="#F2F2F2"/>
</svg>
