<svg width="58" height="58" viewBox="0 0 58 58" fill="none" xmlns="http://www.w3.org/2000/svg">
<path d="M41.0833 2.44084L16.9166 2.41667C14.2583 2.41667 12.0833 4.59167 12.0833 7.25V50.75C12.0833 53.4083 14.2583 55.5833 16.9166 55.5833H41.0833C43.7416 55.5833 45.9166 53.4083 45.9166 50.75V7.25C45.9166 4.59167 43.7416 2.44084 41.0833 2.44084ZM41.0833 50.75H16.9166V48.3333H41.0833V50.75ZM41.0833 43.5H16.9166V14.5H41.0833V43.5ZM41.0833 9.66667H16.9166V7.25H41.0833V9.66667ZM22.9583 20.5417H28.9999V16.9167H19.3333V26.5833H22.9583V20.5417ZM28.9999 41.0833H38.6666V31.4167H35.0416V37.4583H28.9999V41.0833Z" fill="#343538"/>
</svg>
