<svg width="30" height="30" viewBox="0 0 30 30" fill="none" xmlns="http://www.w3.org/2000/svg">
<circle cx="15" cy="15" r="15" fill="#FE7890"/>
<path d="M21.4765 19.4401C21.1058 19.0849 20.7449 18.7196 20.3943 18.3444C20.0998 18.0452 19.9225 17.8275 19.9225 17.8275L17.7058 16.769C18.5933 15.7625 19.0831 14.4668 19.0833 13.125C19.0833 10.0699 16.5975 7.58331 13.5417 7.58331C10.4858 7.58331 8 10.0699 8 13.125C8 16.18 10.4858 18.6666 13.5417 18.6666C14.9374 18.6666 16.2096 18.1441 17.1857 17.2899L18.2442 19.5066C18.2442 19.5066 18.4619 19.6839 18.7611 19.9784C19.0675 20.2658 19.4705 20.6545 19.8568 21.0606L20.9319 22.1626L21.41 22.6741L23.0892 20.9949L22.5778 20.5168C22.2777 20.2223 21.8771 19.8312 21.4765 19.4401ZM13.5417 17.0833C11.359 17.0833 9.58333 15.3076 9.58333 13.125C9.58333 10.9424 11.359 9.16665 13.5417 9.16665C15.7243 9.16665 17.5 10.9424 17.5 13.125C17.5 15.3076 15.7243 17.0833 13.5417 17.0833Z" fill="#F2F2F2"/>
</svg>
