<svg width="38" height="38" viewBox="0 0 38 38" fill="none" xmlns="http://www.w3.org/2000/svg">
<path d="M19.0001 34.8334H9.50008C9.50008 33.9935 9.83371 33.188 10.4276 32.5942C11.0214 32.0003 11.8269 31.6667 12.6667 31.6667V12.6667H3.16675V7.91669H25.3334V12.6667H15.8334V31.6667C16.6733 31.6667 17.4787 32.0003 18.0726 32.5942C18.6664 33.188 19.0001 33.9935 19.0001 34.8334ZM34.8334 3.16669V34.8334H31.6667V23.75H23.7501V34.8334H20.5834V22.1667C20.5834 21.3268 20.917 20.5214 21.5109 19.9275C22.1048 19.3337 22.9102 19 23.7501 19H31.6667V3.16669H34.8334Z" fill="#343538"/>
</svg>
