<svg width="81" height="82" viewBox="0 0 81 82" fill="none" xmlns="http://www.w3.org/2000/svg">
<path d="M76.1249 25.0344C67.0809 15.4731 57.8128 9.67537 47.7927 7.31016C37.6445 4.92112 26.9019 5.85955 14.9427 10.1946C13.7727 10.6131 12.8087 11.4783 12.2576 12.6046C11.7065 13.7309 11.6122 15.0285 11.995 16.2189L29.3792 71.2229C29.6267 72.0195 30.0769 72.7351 30.6847 73.298C31.2926 73.8609 32.0368 74.2514 32.8428 74.4303L32.866 74.4355C33.667 74.6176 34.5024 74.5843 35.2893 74.3387C36.0761 74.0932 36.7871 73.644 37.3516 73.0358L76.1199 31.6805C76.9654 30.7813 77.4378 29.5887 77.4387 28.3508C77.4396 27.1129 76.9691 25.925 76.1249 25.0344ZM72.6791 28.3756L33.9102 69.7313L16.5231 14.7274C27.3737 10.7938 37.0686 9.85916 46.1391 11.8752C46.3221 11.9159 46.5048 11.9578 46.6874 12.0008C55.7866 14.1485 64.289 19.505 72.6806 28.3759L72.6791 28.3756Z" fill="#B3B3B3"/>
<path d="M36.6457 35.5378C36.6826 34.7129 36.4741 33.8955 36.0464 33.189C35.6187 32.4826 34.9912 31.9188 34.2431 31.5691C33.495 31.2193 32.66 31.0992 31.8437 31.224C31.0274 31.3488 30.2664 31.7129 29.657 32.2702C29.0476 32.8275 28.6171 33.553 28.4201 34.355C28.223 35.1569 28.2682 35.9993 28.5499 36.7756C28.8316 37.5519 29.3371 38.2272 30.0027 38.7161C30.6682 39.205 31.4637 39.4856 32.2887 39.5224C33.3949 39.5717 34.4753 39.1797 35.2924 38.4324C36.1095 37.6852 36.5963 36.644 36.6457 35.5378Z" fill="#B3B3B3"/>
<path d="M49.1462 49.5629C51.1745 48.48 51.941 45.9579 50.8581 43.9295C49.7753 41.9012 47.2532 41.1347 45.2248 42.2176C43.1965 43.3004 42.43 45.8225 43.5128 47.8509C44.5957 49.8792 47.1178 50.6457 49.1462 49.5629Z" fill="#B3B3B3"/>
<path d="M31.7673 50.9854L35.5466 48.0783L41.251 55.4433L37.4714 58.3506L31.7673 50.9854ZM41.8599 30.7799L51.9624 29.3671L52.6326 34.0832L42.5301 35.4961L41.8599 30.7799Z" fill="#B3B3B3"/>
<path d="M23.0646 24.9569C28.643 22.9453 36.9864 20.9565 45.2524 22.7938C45.3732 22.8206 45.4942 22.8483 45.6151 22.8769C52.4811 24.4964 58.3229 28.0367 63.9998 34.0178L67.4856 30.6477C61.1374 23.9601 54.5425 19.9866 46.7308 18.1432C37.2017 15.8999 27.7312 18.1196 21.4612 20.3804L23.0646 24.9569Z" fill="#B3B3B3"/>
</svg>
