<svg width="88" height="88" viewBox="0 0 88 88" fill="none" xmlns="http://www.w3.org/2000/svg">
<g clip-path="url(#clip0_9151_1655)" filter="url(#filter0_i_9151_1655)">
<path d="M44 79.5422C48.05 79.5422 51.3333 76.259 51.3333 72.2089C51.3333 68.1588 48.05 64.8756 44 64.8756C39.9499 64.8756 36.6666 68.1588 36.6666 72.2089C36.6666 76.259 39.9499 79.5422 44 79.5422Z" fill="#FFC7C2"/>
<path d="M71.3289 43.2911L71.5978 42.8756C71.8632 42.4642 72.0441 42.0042 72.13 41.5222C72.2159 41.0403 72.2051 40.5461 72.0982 40.0683C71.9912 39.5906 71.7904 39.1389 71.5072 38.7396C71.2241 38.3402 70.8643 38.0012 70.4489 37.7422C62.5009 32.8323 53.3423 30.2336 44 30.2378C42.6311 30.2378 41.2867 30.2378 39.9667 30.4089L47.8133 38.2556C54.4004 38.8377 60.7612 40.9468 66.3911 44.4156C67.1992 44.9053 68.1661 45.0617 69.0874 44.8519C70.0087 44.6421 70.8125 44.0824 71.3289 43.2911Z" fill="#FFC7C2"/>
<path d="M80.0799 22.9289C71.9332 17.8478 62.8055 14.5442 53.2939 13.2342C43.7824 11.9241 34.1014 12.6372 24.8844 15.3267L31.3133 21.7556C46.6726 18.4582 62.7124 21.2821 76.0222 29.6267C76.8259 30.1015 77.7813 30.2495 78.6911 30.0403C79.6008 29.831 80.3955 29.2805 80.9111 28.5022L81.18 28.0867C81.4514 27.6774 81.6385 27.218 81.7302 26.7355C81.8218 26.2529 81.8163 25.757 81.7138 25.2766C81.6114 24.7963 81.4141 24.3412 81.1336 23.9381C80.853 23.5349 80.4948 23.1918 80.0799 22.9289Z" fill="#FFC7C2"/>
<path d="M7.33337 11.6111L14.9112 19.1889C12.4563 20.3223 10.0726 21.6039 7.77338 23.0267C7.3526 23.2837 6.98757 23.6224 6.69985 24.0228C6.41213 24.4232 6.20755 24.8772 6.09818 25.3579C5.98881 25.8387 5.97687 26.3365 6.06307 26.822C6.14926 27.3074 6.33185 27.7707 6.60004 28.1844L6.86893 28.6C7.38448 29.3782 8.17917 29.9288 9.08893 30.1381C9.99869 30.3473 10.9541 30.1992 11.7578 29.7244C14.6131 27.9283 17.614 26.3747 20.7289 25.08L28.4045 32.7556C24.5203 34.0043 20.802 35.7198 17.3312 37.8644C16.9177 38.1254 16.5602 38.4659 16.2795 38.8661C15.9987 39.2664 15.8003 39.7184 15.6956 40.196C15.591 40.6736 15.5823 41.1672 15.6701 41.6482C15.7578 42.1291 15.9402 42.5879 16.2067 42.9978L16.4756 43.4133C16.9911 44.1916 17.7858 44.7421 18.6956 44.9514C19.6054 45.1606 20.5607 45.0126 21.3645 44.5378C25.5112 41.9728 30.0667 40.1374 34.8334 39.1111L43.6334 47.9111C37.7784 47.9708 32.0466 49.6 27.0356 52.6289C26.623 52.8875 26.266 53.2258 25.9855 53.6239C25.7051 54.022 25.5067 54.4719 25.402 54.9475C25.2973 55.4231 25.2884 55.9148 25.3759 56.3939C25.4633 56.8729 25.6453 57.3298 25.9112 57.7378L26.1556 58.1289C26.6935 58.9239 27.5182 59.4799 28.4569 59.6804C29.3955 59.8809 30.3754 59.7103 31.1912 59.2044C34.481 57.2502 38.1765 56.0793 41.9916 55.7826C45.8066 55.4859 49.6387 56.0712 53.1912 57.4933L70.8889 75.1667L74.3356 71.72L10.78 8.16444L7.33337 11.6111Z" fill="#FFC7C2"/>
</g>
<defs>
<filter id="filter0_i_9151_1655" x="0" y="0" width="88" height="92" filterUnits="userSpaceOnUse" color-interpolation-filters="sRGB">
<feFlood flood-opacity="0" result="BackgroundImageFix"/>
<feBlend mode="normal" in="SourceGraphic" in2="BackgroundImageFix" result="shape"/>
<feColorMatrix in="SourceAlpha" type="matrix" values="0 0 0 0 0 0 0 0 0 0 0 0 0 0 0 0 0 0 127 0" result="hardAlpha"/>
<feOffset dy="4"/>
<feGaussianBlur stdDeviation="4"/>
<feComposite in2="hardAlpha" operator="arithmetic" k2="-1" k3="1"/>
<feColorMatrix type="matrix" values="0 0 0 0 0 0 0 0 0 0 0 0 0 0 0 0 0 0 0.25 0"/>
<feBlend mode="normal" in2="shape" result="effect1_innerShadow_9151_1655"/>
</filter>
<clipPath id="clip0_9151_1655">
<rect width="88" height="88" fill="white"/>
</clipPath>
</defs>
</svg>
